HIERARCHY
ROOT hip
{
	OFFSET 0.000000 0.000000 0.000000 
	CHANNELS 6 Xposition Yposition Zposition Xrotation Zrotation Yrotation
	JOINT abdomen
	{
		OFFSET 0.000000 3.402643 0.000000 
		CHANNELS 3 Xrotation Zrotation Yrotation
		JOINT chest
		{
			OFFSET 0.000000 8.438565 -0.680529 
			CHANNELS 3 Xrotation Zrotation Yrotation
			JOINT neck
			{
				OFFSET 0.000000 10.207942 -0.272212 
				CHANNELS 3 Xrotation Zrotation Yrotation
				JOINT head
				{
					OFFSET 0.000000 3.130431 0.000000 
					CHANNELS 3 Xrotation Zrotation Yrotation
					End Site
					{
						OFFSET 0.000000 3.130435 0.000000 
					}
				}
			}
			JOINT lCollar
			{
				OFFSET 3.470700 6.669187 -0.816635 
				CHANNELS 3 Yrotation Zrotation Xrotation
				JOINT lShldr
				{
					OFFSET 3.198488 0.000000 0.000000 
					CHANNELS 3 Zrotation Yrotation Xrotation
					JOINT lForeArm
					{
						OFFSET 10.139888 0.000000 0.000000 
						CHANNELS 3 Yrotation Zrotation Xrotation
						JOINT lHand
						{
							OFFSET 8.370511 0.000000 0.000000 
							CHANNELS 3 Zrotation Yrotation Xrotation
							End Site
							{
								OFFSET 4.083176 0.000000 0.000000 
							}
						}
					}
				}
			}
			JOINT rCollar
			{
				OFFSET -3.470700 6.669187 -0.816635 
				CHANNELS 3 Yrotation Zrotation Xrotation
				JOINT rShldr
				{
					OFFSET -3.198488 0.000000 0.000000 
					CHANNELS 3 Zrotation Yrotation Xrotation
					JOINT rForeArm
					{
						OFFSET -10.139888 0.000000 0.000000 
						CHANNELS 3 Yrotation Zrotation Xrotation
						JOINT rHand
						{
							OFFSET -8.370511 0.000000 0.000000 
							CHANNELS 3 Zrotation Yrotation Xrotation
							End Site
							{
								OFFSET -4.083176 0.000000 0.000000 
							}
						}
					}
				}
			}
		}
	}
	JOINT lThigh
	{
		OFFSET 5.308129 -1.633274 1.361059 
		CHANNELS 3 Xrotation Zrotation Yrotation
		JOINT lShin
		{
			OFFSET -2.041588 -20.007561 0.000000 
			CHANNELS 3 Xrotation Zrotation Yrotation
			JOINT lFoot
			{
				OFFSET 0.000000 -19.190928 -1.224953 
				CHANNELS 3 Xrotation Yrotation Zrotation
				End Site
				{
					OFFSET 0.000000 -2.449906 4.627600 
				}
			}
		}
	}
	JOINT rThigh
	{
		OFFSET -5.308129 -1.633274 1.361059 
		CHANNELS 3 Xrotation Zrotation Yrotation
		JOINT rShin
		{
			OFFSET 2.041588 -20.007561 0.000000 
			CHANNELS 3 Xrotation Zrotation Yrotation
			JOINT rFoot
			{
				OFFSET 0.000000 -19.190928 -1.224953 
				CHANNELS 3 Xrotation Yrotation Zrotation
				End Site
				{
					OFFSET 0.000000 -2.449906 4.627600 
				}
			}
		}
	}
}
MOTION
Frames: 10
Frame Time: 0.016667
-14.883572 53.298100 -1.041795 -5.203526 -1.526881 -29.142420 32.311588 2.702406 0.166255 1.338074 -0.537109 0.078034 -8.283009 1.365839 -0.177008 7.884092 5.414246 -57.190678 -9.297361 -4.887001 -0.260485 -67.281319 31.420017 -38.804707 -1.299828 -5.000000 45.000000 -34.611031 11.564984 14.481214 15.153235 -10.347394 0.533661 85.097931 -3.981645 -13.911181 11.111623 5.000000 29.224504 -7.415142 -29.875271 45.000000 17.096212 20.164150 6.757457 12.484410 -3.781167 -0.976209 8.427235 8.202219 -11.254023 3.837292 -7.978831 -15.929806 3.561040 3.282186 0.285534 5.815835 -18.910307 5.094352 
-14.472896 53.238239 -1.038196 -5.282275 -1.818498 -27.544624 32.256195 2.948172 0.338726 1.366638 -0.537109 0.195310 -8.214864 1.433429 -0.187232 7.869751 5.425199 -57.153122 -9.403858 -4.682180 -0.249103 -66.205513 31.336361 -37.506538 -1.774324 -5.000000 45.000000 -34.225307 10.786854 14.564097 14.933567 -9.820740 0.506393 84.178383 -4.434519 -14.371630 10.473103 5.000000 28.928885 -7.856983 -28.402411 45.000000 16.988508 20.289906 6.773812 12.199051 -3.778133 -0.965412 6.397605 8.656457 -11.381793 4.077923 -8.110473 -17.200024 3.729395 3.179696 0.314666 6.112975 -19.152351 5.563200 
-14.009399 53.168472 -1.041640 -5.396061 -2.060735 -26.121880 32.249416 3.099476 0.455320 1.356796 -0.458984 0.234372 -8.205131 1.443085 -0.188693 7.844734 5.372225 -57.144855 -9.324413 -4.556993 -0.232969 -65.093964 31.307407 -36.247498 -2.276928 -5.000000 45.000000 -33.939018 10.397268 14.810038 14.941413 -9.418379 0.494976 83.029816 -4.918694 -14.680090 9.992087 5.000000 29.417017 -6.905576 -27.654247 45.000000 16.878626 20.248442 6.822698 11.967972 -3.798430 -0.940687 4.199813 9.484737 -11.506367 4.262425 -8.381813 -18.466047 3.969008 3.117749 0.329647 6.419935 -19.251310 5.970383 
-13.510700 53.092102 -1.049777 -5.524062 -2.269767 -24.796413 32.280697 3.227374 0.527672 1.327850 -0.322266 0.195312 -8.234332 1.414118 -0.184311 7.806330 5.278012 -57.161049 -9.109211 -4.469220 -0.228446 -63.971340 31.303484 -35.036240 -2.794486 -5.000000 45.000000 -33.721340 10.253289 15.170446 15.094998 -9.106308 0.477247 81.738571 -5.433902 -14.885277 9.629313 5.000000 30.439653 -5.061697 -27.327209 45.000000 16.752752 20.103794 6.875504 11.751371 -3.866475 -0.931033 1.855340 10.636721 -11.495973 4.374032 -8.778111 -19.716162 4.286562 3.102018 0.340024 6.783496 -19.320534 6.351726 
-12.994436 53.014084 -1.063582 -5.647819 -2.462920 -23.509491 32.312138 3.327264 0.588528 1.298765 -0.185547 0.156250 -8.292833 1.385151 -0.179930 7.736362 5.201279 -57.130207 -8.885151 -4.418950 -0.235553 -62.901199 31.302279 -33.922935 -3.341066 -5.000000 45.000000 -33.470135 10.163261 15.611432 15.228910 -8.764977 0.459587 80.418526 -5.926691 -15.058054 9.331558 5.000000 31.237129 -3.317860 -26.947168 45.000000 16.595207 19.907181 6.944289 11.591342 -3.914098 -0.932764 -0.445399 11.671980 -11.445446 4.432495 -9.189203 -20.948755 4.616939 3.071547 0.341430 7.164063 -19.356010 6.715765 
-12.407928 52.929478 -1.100072 -5.705627 -2.600456 -22.407248 32.323151 3.390687 0.604349 1.318406 -0.068359 0.087879 -8.478261 1.346528 -0.174087 7.554492 5.207131 -56.893726 -8.651022 -4.477504 -0.238574 -62.042610 31.361801 -33.208530 -4.038679 -5.000000 45.000000 -33.060036 10.282339 16.406507 15.283986 -8.316370 0.436353 78.977142 -6.325522 -15.121296 9.321728 5.000000 31.122967 -1.854007 -26.686621 45.000000 16.353689 19.558338 7.079715 11.615616 -3.995565 -0.941653 -2.672133 12.470857 -11.218496 4.295193 -9.754114 -22.154799 5.021178 3.018982 0.308064 7.609190 -19.091938 7.173490 
-11.821432 52.844875 -1.136560 -5.771440 -2.729610 -21.314890 32.344223 3.453049 0.620582 1.328035 0.058594 0.019531 -8.654148 1.306444 -0.177898 7.373415 5.213898 -56.646690 -8.416896 -4.536058 -0.241594 -61.188545 31.403889 -32.498779 -4.731258 -5.000000 45.000000 -32.654675 10.384510 17.209248 15.339179 -7.858009 0.411251 77.536377 -6.721703 -15.175158 9.311798 5.000000 31.008780 -0.402856 -26.397387 45.000000 16.080933 19.157763 7.222763 11.623054 -4.031782 -0.974606 -4.836247 13.363417 -10.919275 4.169773 -10.302716 -23.367865 5.414733 2.962383 0.292581 8.034044 -18.890057 7.571848 
-11.187899 52.785057 -1.182645 -5.973649 -2.847180 -20.387955 32.511463 3.380402 0.600634 1.366948 0.117187 -0.039062 -8.673740 1.325755 -0.180819 7.214614 5.305156 -56.660110 -8.387280 -4.644766 -0.237491 -60.496105 31.574066 -32.126232 -5.383497 -5.000000 45.000000 -32.000164 10.799090 17.804764 15.265695 -7.294942 0.372637 76.089333 -7.020515 -15.164386 9.355307 5.000000 30.995483 0.646307 -26.068880 44.982983 15.838223 18.583357 7.092884 11.833223 -4.111733 -1.006275 -6.299727 13.964434 -10.345637 4.194577 -10.960956 -24.450769 5.560937 2.874237 0.299258 8.875601 -18.652882 8.076897 
-10.542640 52.731419 -1.231124 -6.232229 -2.945912 -19.509336 32.728001 3.283634 0.582494 1.405882 0.166015 -0.078124 -8.654332 1.364378 -0.186661 7.065403 5.408122 -56.743896 -8.417033 -4.752044 -0.243017 -59.841591 31.765923 -31.842196 -6.027353 -5.000000 45.000000 -31.271225 11.277894 18.351170 15.164278 -6.690276 0.340153 74.640060 -7.287077 -15.127973 9.420297 5.000000 31.007778 1.579023 -25.708847 44.067146 15.603029 17.937414 6.922059 12.051113 -4.197598 -1.059665 -7.550437 14.440513 -9.742211 4.264958 -11.648085 -25.499680 5.626458 2.765464 0.300162 9.812710 -18.486149 8.548066 
-9.877889 52.690178 -1.289699 -6.478639 -3.043098 -18.728777 32.962692 3.189756 0.531645 1.444394 0.234373 -0.214842 -8.575963 1.287133 -0.174977 6.928365 5.449304 -56.799397 -8.369763 -4.916415 -0.262020 -59.221115 31.895044 -31.568653 -6.460794 -5.000000 45.000000 -30.436499 11.540040 18.713030 15.201859 -6.248861 0.326825 73.442162 -7.557426 -15.140324 9.540508 5.000000 30.919443 2.456634 -25.519474 43.516052 15.336177 17.290693 6.682204 12.287340 -4.324907 -1.069149 -8.626447 14.851439 -9.074074 4.379475 -12.308175 -26.510292 5.490655 2.619655 0.287317 10.938108 -18.213749 9.090384 
